<?xml version="1.0" encoding="UTF-8"?>
<svg id="Layer_1" data-name="Layer 1" xmlns="http://www.w3.org/2000/svg" xmlns:xlink="http://www.w3.org/1999/xlink" viewBox="0 0 128 128">
  <defs>
    <style>
      .cls-1 {
        fill: none;
      }

      .cls-1, .cls-2 {
        stroke-width: 0px;
      }

      .cls-3 {
        clip-path: url(#clippath);
      }

      .cls-2 {
        fill: #0a1c29;
      }
    </style>
    <clipPath id="clippath">
      <rect class="cls-1" x="20.55" y="21" width="86.89" height="86"/>
    </clipPath>
  </defs>
  <g class="cls-3">
    <g>
      <path class="cls-2" d="m107.45,74.97c-.44.98-1.22,1.3-2.25,1.29-3-.02-6,0-9-.01-1.67,0-2.23-.58-2.24-2.26,0-3,0-6,0-9,0-1.68.58-2.24,2.24-2.25h2.7c-.58-16.16-13.21-30.01-28.15-32.58,0,.74.01,1.48,0,2.2-.02,1.44-.63,2.11-2.05,2.12-3.14.02-6.28.02-9.42,0-1.42-.01-2.03-.67-2.05-2.12-.01-.73,0-1.46,0-2.2-14.94,2.57-27.57,16.42-28.15,32.58.93,0,1.85,0,2.78,0,1.52,0,2.15.59,2.15,2.08.02,3.11.02,6.22,0,9.33,0,1.45-.62,2.07-2.06,2.08-3.11.02-6.22,0-9.33.01-.99,0-1.66-.41-2.08-1.29v-11.03c.53-.95,1.35-1.27,2.4-1.2.87.06,1.74.01,2.6.01,1.32-15.17,8.67-26.23,22.26-33.24h-13.78c0,.95,0,1.85,0,2.75-.01,1.66-.58,2.24-2.25,2.24-3,.01-5.99-.01-8.99.01-1.03,0-1.81-.31-2.25-1.29v-12.21h12.22c.98.44,1.31,1.22,1.27,2.25-.03.92,0,1.84,0,2.74h23.21c0-.94.02-1.82,0-2.69-.03-1.06.3-1.88,1.34-2.3h10.86c1.03.43,1.37,1.24,1.34,2.3-.03.89,0,1.79,0,2.7h23.21c0-.95.03-1.85,0-2.75-.04-1.03.29-1.81,1.27-2.25h12.22v12.22c-.45,1.02-1.28,1.3-2.33,1.29-2.94-.03-5.88,0-8.82-.01-1.78,0-2.32-.55-2.33-2.33,0-.89,0-1.78,0-2.67h-13.79c13.6,7.02,20.95,18.07,22.27,33.25.86,0,1.73.05,2.6-.01,1.06-.07,1.87.25,2.4,1.2v11.03h0ZM60.67,24.43v6.6h6.64v-6.6h-6.64Zm-30.08.02h-6.62v6.59h6.62v-6.59h0Zm73.4,6.61v-6.61h-6.56v6.61h6.56ZM23.99,66.18v6.63h6.59v-6.63h-6.59Zm80.02,0h-6.59v6.62h6.59v-6.62Z"/>
      <path class="cls-2" d="m51.95,107c-.95-.53-1.21-1.35-1.2-2.41.04-4.24.01-7.59.02-11.83,0-.46-.1-.75-.52-1.03-1.82-1.21-2.64-3.39-2.12-5.4.57-2.16,2.3-3.65,4.53-3.86.62-.06,1.24,0,1.94,0-.38-2.01-1.06-3.81-1.92-5.56-1.23-2.51-2.87-4.73-4.88-6.68-1.16-1.13-1.22-1.63-.44-3.05.73-1.34,1.46-2.68,2.22-4,.38-.66,1-1.14,1.74-.89.52.17,1.1.64,1.31,1.13.18.42-.01,1.1-.23,1.58-.43.95-1.01,1.83-1.47,2.77-.11.23-.09.69.07.86,3.63,3.87,5.95,8.41,7.04,13.6.01.05.05.1.08.18h11.73c.21-.81.38-1.64.62-2.44,1.24-4.22,3.34-7.95,6.35-11.16.31-.34.48-.59.21-1.09-3.68-6.65-7.34-13.31-11.01-19.96-.06-.11-.14-.21-.35-.51v2.99c0,2.88.01,5.77-.01,8.65,0,.51.1.78.62,1,2.54,1.1,3.89,3.79,3.31,6.47-.57,2.63-2.92,4.53-5.61,4.54-2.69,0-5.04-1.89-5.62-4.52-.59-2.67.77-5.37,3.29-6.5.38-.17.65-.28.65-.81-.03-3.79-.01-7.58-.02-11.37,0-.08-.03-.15-.07-.36-.18.29-.31.49-.43.69-1.07,1.93-2.12,3.86-3.2,5.79-.62,1.1-1.55,1.45-2.45.96-.9-.5-1.11-1.48-.51-2.58,2.24-4.09,4.48-8.17,6.74-12.25.84-1.52,2.39-1.52,3.23,0,5.07,9.17,10.12,18.35,15.17,27.54.61,1.1.49,1.69-.54,2.69-3.29,3.18-5.51,6.98-6.67,11.41-.06.24-.11.49-.2.85.55,0,1.05-.01,1.54,0,2.4.08,4.24,1.49,4.9,3.73.62,2.13-.2,4.25-2.11,5.64-.26.19-.45.63-.45.95-.03,4.24-.04,7.59,0,11.83.01,1.06-.26,1.87-1.2,2.41h-1.02c-.95-.53-1.21-1.35-1.2-2.4.04-3.99.02-7.08.02-11.06v-.87h-19.69v.95c0,3.96-.02,7.02.02,10.98.01,1.06-.26,1.87-1.2,2.4h-1.04Zm11.96-17.77c3.47,0,6.95,0,10.43,0,.34,0,.69,0,1.01-.09.78-.19,1.25-.82,1.25-1.6s-.46-1.41-1.24-1.61c-.32-.08-.67-.09-1.01-.09-6.89,0-13.79,0-20.69,0-.39,0-.8.01-1.17.14-1.2.41-1.52,2.06-.5,2.8.4.29.99.43,1.5.43,3.48.03,6.95.02,10.43.02h0Zm2.46-24.07c0-1.29-1.08-2.38-2.36-2.38-1.29,0-2.37,1.08-2.38,2.37,0,1.3,1.06,2.36,2.36,2.37,1.3,0,2.37-1.06,2.38-2.35h0Z"/>
      <path class="cls-2" d="m55.6,58.68c.01.9-.75,1.69-1.65,1.7-.91.01-1.67-.74-1.68-1.66-.01-.91.74-1.7,1.64-1.71.88-.01,1.68.77,1.69,1.67Z"/>
    </g>
  </g>
</svg>