<?xml version="1.0" encoding="UTF-8"?>
<svg id="Layer_1" data-name="Layer 1" xmlns="http://www.w3.org/2000/svg" xmlns:xlink="http://www.w3.org/1999/xlink" viewBox="0 0 128 128">
  <defs>
    <style>
      .cls-1 {
        fill: none;
      }

      .cls-1, .cls-2 {
        stroke-width: 0px;
      }

      .cls-3 {
        clip-path: url(#clippath);
      }

      .cls-2 {
        fill: #0a1c29;
      }
    </style>
    <clipPath id="clippath">
      <rect class="cls-1" x="29" y="16.53" width="70" height="94.94"/>
    </clipPath>
  </defs>
  <g class="cls-3">
    <path class="cls-2" d="m45,76.35c1.74-2.81,4.12-3.74,7.14-2.77,2.56-2.38,3.04-2.53,6.87-2,.17-2.83.34-5.64.52-8.51-2.9-1.72-4.8-4.13-5.48-7.51h-14.65c-2.24,3.11-4.2,4.04-6.75,3.2-2.17-.72-3.6-2.77-3.56-5.11.04-2.29,1.57-4.27,3.8-4.92,2.46-.71,4.53.32,6.42,3.23h14.66c.06-.13.11-.25.17-.38-.53-.34-1.03-.7-1.58-1.01-6.01-3.43-12-6.87-18.04-10.24-1.28-.72-1.96-1.54-1.81-3.07.12-1.29.03-2.59.03-3.83-3.39-2.49-4.3-4.33-3.46-6.89.73-2.22,2.71-3.61,5.08-3.57,2.44.04,4.27,1.49,4.98,3.94.69,2.39-.29,4.27-3.38,6.39v4.13c6.4,3.64,12.82,7.29,19.33,10.99.49-.63.94-1.2,1.25-1.61-1.55-1.69-2.87-3.52-4.57-4.89-2.34-1.89-3.39-4.07-2.95-7.04.13-.9.02-1.84.02-2.83-1.52-.82-2.96-1.75-3.36-3.5-.23-.99-.3-2.11-.06-3.08.57-2.31,2.81-3.85,5.12-3.79,2.35.07,4.29,1.65,4.97,4.03.66,2.32-.46,4.42-3.4,6.33-.03.16-.08.34-.09.52-.07,3.3,1.09,6.1,3.49,8.4,1.2,1.15,2.4,2.29,3.64,3.49,1.01-.36,1.93-.69,2.94-1.05v-16.43c-3.18-2.3-4.12-4.23-3.28-6.71.78-2.28,2.97-3.86,5.19-3.74,2.25.12,4.24,1.73,4.87,3.94.69,2.4-.4,4.53-3.39,6.43v16.4c1.01.3,2,.59,3.16.93,2.2-2.04,4.47-4.12,6.7-6.24.31-.3.5-.86.51-1.31.06-1.6.02-3.2.02-4.73-3.39-2.49-4.29-4.34-3.43-6.93.71-2.14,2.89-3.69,5.1-3.61,2.3.08,4.26,1.64,4.86,3.88.72,2.65-.2,4.5-3.36,6.51,0,1.76-.04,3.66.02,5.56.04,1.15-.36,2-1.21,2.76-1.71,1.52-3.35,3.11-5.05,4.64-.45.41-1.01.7-1.56,1.07.71.91,1.12,1.43,1.64,2.11,6.32-3.52,12.61-7.02,18.93-10.53v-3.92c-2.83-1.71-4.19-3.96-3.27-6.67.79-2.33,2.79-3.79,5.17-3.71,2.24.07,4.32,1.72,4.89,3.88.67,2.52-.39,4.51-3.54,6.55,0,1.28-.09,2.64.02,3.99.12,1.42-.62,2.11-1.74,2.73-5.79,3.18-11.55,6.41-17.32,9.63-.58.32-1.15.67-2.15,1.25.8.35,1.23.7,1.66.7,4.26.04,8.52.03,12.69.03,2.73-3.41,4.62-4.24,7.2-3.26,2.14.81,3.42,2.85,3.3,5.26-.11,2.12-1.63,4.03-3.69,4.6-2.7.75-4.56-.16-6.57-3.27h-13.51c-.8,1.65-1.35,3.33-2.35,4.68-1,1.36-2.44,2.4-3.95,3.82.11,5.38.24,11.12.37,17.18.86-1.23,1.51-2.26,2.25-3.2,1.51-1.91,3.45-3.13,5.87-3.58,1.46-.27,2.72.03,3.67,1.17.81.96.67,2.36-.19,3.79-.83,1.37-1.64,2.76-2.44,4.15-1.25,2.18-1.91,4.54-2.03,7.04-.19,3.92-1.49,7.34-4.41,10.07-1.12,1.06-2.12,2.25-3.24,3.31-1.15,1.08-1.69,2.33-1.72,3.93-.06,3.84-.17,3.9-4.04,3.9h-15.95c-.49,0-.99.03-1.48-.02-1.46-.12-1.94-.62-1.97-2.11-.03-1.11-.06-2.23.03-3.34.25-3.43-.45-6.7-1.28-10.03-.87-3.51-1.23-7.16-1.7-10.76-.2-1.51-.35-3.1-.13-4.59.45-3.02,1.42-3.82,4.54-4.29h-.01Zm32.99.94c-.23-.05-.35-.12-.46-.09-.24.06-.47.14-.7.24-2.44,1.05-3.83,3.08-4.79,5.4-.7,1.7-1.15,3.51-1.68,5.27-.42,1.38-1.52,2.02-2.45,1.28-.44-.35-.8-.98-.89-1.53-.44-2.8-1.02-5.6-1.1-8.41-.26-8.77-.32-17.54-.46-26.32-.01-.71.16-1.67-.92-1.69-1.1-.03-1.16.89-1.19,1.73,0,.12,0,.25,0,.37-.45,7.27-.89,14.54-1.35,21.81-.04.62-.03,1.25-.16,1.84-.17.8-.7,1.28-1.56,1.32-.79.03-1.26-.38-1.49-1.12-.17-.53-.29-1.08-.52-1.58-.35-.77-.89-1.39-1.83-1.29-1.01.1-1.42.81-1.63,1.74-.47,2.18-1.43,2.48-3.12,1.01-1.57-1.36-3.14-.95-3.9,1-.64,1.65-.87,1.78-2.58,1.44-.3-.06-.6-.04-1.23-.07-.15.88-.46,1.76-.42,2.62.23,5.06.78,10.1,2.34,14.94.87,2.69,1.15,5.42.9,8.22-.08.83-.01,1.68-.01,2.57h16.77c.11-.42.25-.72.25-1.02.04-2.54,1.28-4.43,3.1-6.08,1.01-.91,1.84-2.01,2.84-2.92,2.45-2.25,3.33-5.13,3.46-8.31.09-2.26.6-4.41,1.6-6.41.99-1.98,2.08-3.9,3.19-5.97h0Zm-18.03-18c0-1.39-.03-2.5.01-3.61.04-1.11.16-2.21.25-3.32.21-2.56,1.95-4.38,4.17-4.34,2.32.04,4.12,1.75,4.29,4.23.13,1.91.09,3.82.15,5.73.01.37.11.75.19,1.21,3.33-2.67,3.4-7.73.43-10.61-2.93-2.84-7.69-2.72-10.43.29-3.11,3.42-2.07,8.33.93,10.41Zm-25.72-3.54c1.13.03,2.05-.82,2.08-1.92.03-1.08-.87-2.01-1.96-2.04-1.11-.03-2.04.83-2.07,1.92-.03,1.12.82,2.01,1.95,2.04h0Zm27.82-33.85c.03,1.14.9,1.96,2.03,1.92,1.1-.04,1.98-.96,1.95-2.05-.03-1.08-.96-1.94-2.07-1.91-1.14.03-1.94.88-1.91,2.03h0Zm-9.39,5.09c.03-1.07-.88-1.95-2.02-1.95-1.18,0-2.03.81-2.02,1.94.01,1.04,1,2.06,1.99,2.06s2.02-1.04,2.05-2.04Zm26.92-.27c.01-1.15-.81-1.99-1.94-2-1.1,0-2.03.88-2.05,1.95-.02,1.05.91,1.98,1.99,2,1.15.02,1.98-.79,1.99-1.95Zm-45.23-.5c-1.14-.04-2.04.76-2.09,1.86-.04,1.06.85,2.04,1.92,2.09,1.09.06,2.01-.8,2.07-1.91.06-1.15-.72-1.99-1.89-2.04Zm59.42,29.21c1.1-.02,1.99-.94,1.96-2.02-.03-1.07-.98-1.97-2.06-1.94-1.11.03-1.95.91-1.93,2.04.02,1.14.87,1.95,2.02,1.92h0Zm-.11-25.14c1.15.03,2.03-.78,2.07-1.89.03-1.06-.88-2.04-1.93-2.08-1.05-.04-2.01.87-2.05,1.95-.04,1.13.77,1.99,1.92,2.02h0Z"/>
  </g>
</svg>