<?xml version="1.0" encoding="UTF-8"?>
<svg id="Layer_1" data-name="Layer 1" xmlns="http://www.w3.org/2000/svg" xmlns:xlink="http://www.w3.org/1999/xlink" viewBox="0 0 128 128">
  <defs>
    <style>
      .cls-1 {
        fill: none;
      }

      .cls-1, .cls-2 {
        stroke-width: 0px;
      }

      .cls-3 {
        clip-path: url(#clippath);
      }

      .cls-2 {
        fill: #0a1c29;
      }
    </style>
    <clipPath id="clippath">
      <rect class="cls-1" x="7.49" y="20.78" width="113.51" height="86.07"/>
    </clipPath>
  </defs>
  <g class="cls-3">
    <g>
      <path class="cls-2" d="m74.17,60.67l-1.33-.06-.42-.02c-.36-2.06.06-3.21,1.55-4.33,3.25-2.44,5.07-5.89,5.25-9.97.15-3.53.28-7.7,0-11.88-.49-7.42-6.49-13.27-13.97-13.61-.23-.01-.46-.01-.69-.01-3.53,0-6.93,1.21-9.58,3.39-2.71,2.24-4.45,5.37-4.89,8.83-.63,4.91-.38,10.03-.06,14.39.28,3.76,2.38,7.11,6.07,9.71.94.66.82,1.49.67,2.44-.04.24-.07.48-.09.72-.24.14-1.04.36-1.61.38-7.97.38-14.06,6.66-14.17,14.59-.1,7.56-.07,15.25-.04,22.69,0,1.36.01,2.71.02,4.07.01,3.07,1.77,4.83,4.83,4.84,6.47.01,12.96.03,19.29.03s12.36,0,18.41-.02c3.04,0,4.79-1.78,4.8-4.86,0-1.7.01-3.39.01-5.09.03-7.16.05-14.56-.04-21.84-.09-7.66-6.24-13.97-14.01-14.36h0Zm8.59,8.87c-.31-.48-.65-.93-1.02-1.35-.37-.42-.78-.82-1.21-1.18.43.36.83.76,1.21,1.18.37.42.71.88,1.02,1.35Zm1.72,5.7c.04,4.37.04,8.74.04,13.1,0-4.37,0-8.74-.04-13.1,0-.89-.13-1.76-.35-2.59-.22-.83-.54-1.63-.94-2.38.4.75.72,1.55.94,2.38.22.83.34,1.7.35,2.59Zm-1.63,27.53c-.71-.02-1.47-.03-2.41-.03-.58,0-1.17,0-1.77,0-.52,0-1.04,0-1.58,0v-14.49c0-.66-.16-1.2-.47-1.59-.35-.43-.88-.66-1.53-.66h-.04c-1.26.01-2.02.87-2.02,2.29,0,3.03,0,6.06,0,9.09v5.22h-16.95v-7.9c0-1.91,0-3.83,0-5.75,0-.91-.04-1.84-.63-2.42-.33-.33-.8-.51-1.4-.51h-.09c-2.02.05-2.02,1.84-2.01,3.01,0,3.33,0,6.6,0,10.08v3.62c-.47,0-.94,0-1.4.01-.56,0-1.12.01-1.67.01-1.31,0-2.3-.03-3.22-.1-.2-.11-.62-.9-.63-1.35-.06-3.88-.05-7.83-.05-11.65,0-1.08,0-2.17,0-3.25,0-1.12,0-2.23,0-3.35-.01-2.61-.02-5.3.03-7.95.09-4.41,3.09-8.44,7.29-9.79.29-.1.52-.14.7-.14.3,0,.58.11.97.66,2.59,3.69,6.44,5.81,10.58,5.81s7.97-2.1,10.54-5.77c.41-.58.68-.69.99-.69.18,0,.39.04.66.13,4.3,1.36,7.33,5.45,7.38,9.94.05,5.16.04,10.41.04,15.49,0,3.51,0,7.15,0,10.72,0,.53-.09.88-.27,1.07-.17.17-.47.25-.92.25h-.13Zm-30.55-12.01v5.2-5.2Zm3.41-2.11c0-.06,0-.12,0-.18,0,.06,0,.12,0,.18Zm-.02-.49s0-.1-.01-.14c0,.05,0,.09.01.14Zm-.03-.23s-.01-.09-.02-.14c0,.04.01.09.02.14Zm-.04-.22s-.02-.09-.03-.13c.01.04.02.09.03.13Zm-.11-.41s-.03-.08-.04-.11c.02.04.03.07.04.11Zm-.09-.19s-.04-.07-.05-.1c.02.03.04.06.05.1Zm-.1-.17s-.04-.06-.06-.09c.03.03.04.06.06.09Zm-.13-.15s-.05-.05-.08-.08c.03.02.05.05.08.08Zm-.33-.24s-.07-.04-.1-.05c.04.01.07.03.1.05Zm-.2-.08s-.08-.03-.12-.04c.04.01.08.02.12.04Zm-.51-.09c-.06,0-.12,0-.19,0h.08s.07,0,.11,0h0Zm-1.3.38s0,0-.01.01c0,0,0,0,.01-.01Zm-2.29,16.34c-.57,0-1.12.01-1.68.01.56,0,1.11,0,1.68-.01Zm1.91-38.21s.05-.01.07-.02c-.02,0-.05.01-.07.02Zm.32-.06h.01-.01Zm.25-.01s.04,0,.06,0c-.02,0-.04,0-.06,0Zm.27.04h.01-.01Zm.22.09s.04.02.05.03c-.02-.01-.04-.02-.05-.03Zm.25.17h0,0Zm16.12-30.09c.17,0,.34.01.51.01-.17,0-.34,0-.51-.01Zm-9.95-2.37h.06-.06Zm3.24,4.01c-.08-.03-.16-.05-.24-.08.08.03.16.05.24.08Zm-1.18-.36c-.09-.02-.17-.04-.26-.05.09.02.17.04.26.05Zm-1.18-.2c-.09-.01-.18-.02-.27-.02.09,0,.18.01.27.02Zm-.22-3.44c.05,0,.1,0,.15.01-.05,0-.1,0-.15-.01Zm1.2.12c.08.01.16.03.24.04-.08-.01-.16-.03-.24-.04Zm1.79.43c.08.03.15.05.23.08-.08-.03-.15-.05-.23-.08Zm.62.23c.06.03.13.05.19.08-.06-.03-.13-.05-.19-.08Zm6.03,5.04h-.17.17Zm-.69-.01c-.07,0-.14,0-.2,0,.07,0,.14,0,.2,0Zm-.77-.05s-.07,0-.11,0c.04,0,.07,0,.11,0Zm-1.44-.21c-.06-.01-.13-.03-.2-.04.06.01.13.03.2.04Zm-2.35-4.43c.2.1.41.19.61.28-.2-.09-.41-.18-.61-.28Zm.8.36c.15.06.3.12.45.17-.15-.05-.3-.11-.45-.17Zm2.05.62c.15.03.31.06.47.09-.16-.03-.31-.06-.47-.09Zm.67.12c.16.03.32.04.47.06-.16-.02-.32-.04-.47-.06Zm.64.08c.21.02.42.04.63.05-.21-.01-.42-.03-.63-.05Zm3.73-.11c.23-.03.46-.07.69-.11-.23.04-.46.08-.69.11Zm-1.09,3.57c-.07,0-.14.01-.21.02.07,0,.14-.01.21-.02Zm-.76.05s-.08,0-.12,0c.04,0,.08,0,.12,0Zm-.41-3.43c.18,0,.36,0,.54-.01-.18,0-.36.01-.54.01Zm.69-.02c.22-.01.45-.03.68-.05-.23.02-.45.04-.68.05Zm.83-.07c.18-.02.36-.04.54-.06-.18.03-.36.05-.54.06Zm2.78-1.05c-.13.22-.64.35-1.42.49-1.06.19-2.04.29-2.99.29-1.94,0-3.69-.4-5.35-1.21-1.59-.78-3.32-1.17-5.16-1.17-1.26,0-2.61.19-4.02.55-.46.12-.92.24-1.43.38-.09.03-.19.05-.29.08.74-4.7,5.25-8.44,10.31-8.44,1.01,0,2.01.15,2.96.45,3.58,1.12,5.98,3.48,7.13,7.01.26.8.4,1.34.26,1.56h0Zm-18.85-.7c-.17.04-.34.09-.52.14.17-.05.34-.09.52-.14Zm3.03-.51s-.08,0-.12,0c.04,0,.08,0,.12,0Zm-1.99.27s-.09.02-.14.03c.05-.01.09-.02.14-.03Zm1.32,3.2c-.11.01-.23.03-.34.05.11-.02.23-.04.34-.05Zm-1.86.41c-.12.04-.24.08-.37.12.12-.04.24-.08.37-.12Zm-1.24.42c-.2.08-.41.17-.61.25.2-.09.41-.17.61-.25Zm-1.39,1.94c.03-.46.51-1.19.91-1.36,1.78-.78,3.41-1.15,4.97-1.15s2.96.36,4.38,1.09c1.75.9,3.7,1.34,5.99,1.34.92,0,1.9-.07,2.98-.22.48-.06.95-.14,1.45-.22.1-.02.2-.03.3-.05,0,.88.04,1.75.07,2.6.07,2.13.14,4.13-.14,6.09-.71,4.91-5.13,8.62-10.29,8.62-.27,0-.55-.01-.83-.03-5.49-.43-9.62-4.68-9.83-10.1-.1-2.54-.09-4.63.03-6.59h0Zm4.14,25.98s.09.09.13.13c-.04-.04-.09-.09-.13-.13Zm6.59-8.9c.08,0,.15,0,.23,0-.08,0-.15,0-.23,0Zm.5-.01c.08,0,.15-.01.23-.01-.08,0-.15.01-.23.01Zm.98-.1c.08-.01.15-.02.22-.04-.08.01-.15.03-.22.04Zm1.91-.46c.07-.02.14-.04.2-.07-.07.03-.14.05-.2.07Zm-7.75,8.58c.69-.73.64-1.77.59-2.77-.03-.6-.06-1.17.07-1.64h7.1c.13.45.09,1.03.05,1.64-.07,1.01-.14,2.05.54,2.79.39.43.98.69,1.8.78-1.27,1.64-3.35,2.6-5.68,2.6s-4.61-.95-6.29-2.62c.82-.1,1.43-.37,1.82-.79h0Zm10.1,1.42c-.05.06-.11.12-.17.18.06-.06.11-.12.17-.18Zm-.34.35c-.05.05-.1.1-.16.15.05-.05.1-.1.16-.15Zm-.35.31c-.05.04-.1.09-.16.13.05-.04.1-.09.16-.13Zm-.37.28c-.05.04-.11.08-.16.12.05-.04.11-.08.16-.12Zm-.38.26c-.06.04-.11.07-.17.1.06-.03.11-.07.17-.1Zm-.39.23c-.06.03-.12.06-.18.1.06-.03.12-.06.18-.1Zm-.41.2c-.06.03-.12.06-.19.09.06-.03.13-.06.19-.09Zm-.42.18c-.06.03-.13.05-.19.08.06-.02.13-.05.19-.08Zm-.43.15c-.07.02-.14.05-.2.06.07-.02.14-.04.2-.06Zm-.44.13c-.07.02-.14.04-.22.06.07-.02.14-.04.22-.06Zm-.45.1c-.08.01-.15.03-.23.04.08-.01.15-.03.23-.04Zm-.46.08c-.08.01-.16.03-.24.03.08-.01.16-.02.24-.03Zm-.46.05c-.08,0-.17.01-.25.02.08,0,.17-.01.25-.02Zm-.48.03c-.08,0-.17,0-.25,0,.08,0,.17,0,.25,0Zm-.49,0c-.08,0-.16,0-.24,0,.08,0,.16,0,.24,0Zm-.47-.03c-.08,0-.16-.01-.24-.02.08,0,.16.01.24.02Zm-1.42-.23c-.09-.02-.17-.04-.26-.06.08.02.17.04.26.06Zm-.47-.13c-.09-.03-.17-.05-.26-.08.09.03.17.05.26.08Zm-.47-.15c-.09-.03-.17-.06-.26-.09.09.03.17.06.26.09Zm-.46-.18c-.09-.04-.17-.07-.26-.11.09.04.17.07.26.11Zm-.45-.2c-.09-.04-.18-.08-.27-.13.09.05.18.09.27.13Zm-.9-.49c-.08-.05-.17-.1-.24-.15.08.05.16.1.24.15Zm-.43-.28c-.08-.06-.16-.11-.24-.17.08.06.16.11.24.17Zm-.42-.31c-.08-.06-.15-.11-.23-.18.08.06.15.12.23.18Zm5.81,5.46c-.12,0-.24.01-.36.01h0c.12,0,.24,0,.36-.01Zm4.87-1.22c-.11.05-.22.11-.33.16.11-.05.22-.11.33-.16Zm-.67.31c-.11.05-.22.1-.33.14.11-.04.22-.09.33-.14Zm-.69.27c-.11.04-.22.08-.33.11.11-.04.22-.08.33-.11Zm-.69.22c-.11.03-.23.07-.34.1.11-.03.23-.06.34-.1Zm-1.4.3c-.12.02-.23.04-.35.05.12-.01.24-.04.35-.05Zm4.55-6.23c.09-.13.18-.26.27-.4-.09.14-.17.27-.27.4Zm-.29.37c.06-.08.13-.16.19-.24-.06.08-.12.16-.19.24Zm.28-11.22s.09-.06.13-.09c-.04.03-.09.06-.13.09Zm-1.4.82c.05-.03.11-.05.16-.08-.05.03-.11.05-.16.08Zm.47-.25s.08-.04.11-.06c-.04.02-.07.04-.11.06Zm.52-.31s.04-.03.06-.04c-.02.01-.04.03-.06.04Zm1.68-1.3c-.05.05-.1.1-.15.14.05-.05.1-.09.15-.14Zm-7.62,2.99c-.26,0-.51-.01-.77-.03.26.02.51.03.77.03Zm-6.49,13.29c-.12-.08-.24-.15-.35-.23.11.08.23.15.35.23Zm3.33,1.53c-.12-.03-.23-.06-.35-.1.11.04.23.07.35.1Zm-1.37-.48c-.12-.05-.24-.1-.35-.15.11.05.24.1.35.15Zm-1.32-.65c-.12-.07-.24-.13-.36-.2.12.07.24.14.36.2Zm16.56-4.53s.02-.02.03-.03c-.01,0-.02.02-.03.03Zm.23-.17s.04-.02.05-.03c-.02.01-.04.02-.05.03Zm.22-.11s.03-.01.05-.02c-.01,0-.03.01-.05.02Zm.27-.06h.05-.05Zm.22,0c.07,0,.15.01.23.03-.08-.01-.15-.02-.23-.03Zm-1.85,1.53c.17-.22.34-.45.51-.68-.17.23-.33.46-.51.68Zm.47-17.32c-.03.07-.05.14-.08.2.03-.07.05-.13.08-.2Zm-.18.46c-.03.07-.06.13-.09.2.03-.06.06-.13.09-.2Zm-.42.88c-.04.06-.07.13-.1.19.04-.06.07-.13.1-.19Zm-.24.42c-.04.06-.08.13-.11.19.04-.06.08-.13.11-.19Zm-.26.41c-.04.06-.08.12-.12.18.04-.06.08-.12.12-.18Zm-.28.4c-.04.06-.09.12-.13.18.04-.06.09-.11.13-.18Zm-.29.38c-.05.06-.09.11-.14.17.05-.05.09-.11.14-.17Zm-.31.37c-.05.05-.09.11-.14.16.05-.05.1-.11.14-.16Zm2.25-4.26c-.01.06-.04.13-.05.19.02-.06.04-.13.05-.19Zm-8.09-23.29c.23.05.46.11.69.19-.23-.07-.46-.13-.69-.19Zm-1.52-.24c.2.02.39.04.59.06-.2-.03-.39-.05-.59-.06Zm-7.81,2.45s.09-.07.13-.1c-.04.04-.09.07-.13.1Zm.5-.38s.04-.03.06-.05c-.02.01-.04.03-.06.05Zm1.45-.88c.06-.03.11-.06.17-.09-.06.03-.11.06-.17.09Zm.5-.24c.05-.03.11-.05.16-.07-.05.03-.11.05-.16.07Zm1.17-.45s.08-.02.11-.04c-.04.01-.08.02-.11.04Zm.52-.15c.06-.01.12-.03.18-.05-.06.01-.12.03-.18.05Zm.53-.13c.06-.01.13-.03.19-.04-.06.01-.13.03-.19.04Zm.55-.1c.06-.01.13-.02.19-.03-.06.01-.13.02-.19.03Zm.59-.08s.09-.01.14-.02c-.05,0-.09.01-.14.02Zm-6.82-1.15c.08-.05.17-.1.25-.15-.08.05-.17.1-.25.15Zm.33,4.18s-.09.08-.13.12c.04-.04.09-.08.13-.12Zm-2.61,4.02c.02-.05.04-.11.06-.17-.02.05-.04.11-.06.17Zm.24-.63s0-.02.01-.03c0,.01,0,.02-.01.03Zm.24-.52s.05-.09.07-.14c-.03.05-.05.09-.07.14Zm.25-.47c.03-.05.06-.11.09-.16-.03.05-.06.11-.09.16Zm.28-.46c.04-.05.07-.11.1-.16-.04.05-.07.1-.1.16Zm.32-.46s.06-.09.1-.14c-.03.04-.06.09-.1.14Zm.39-.51s.02-.03.03-.04c-.01.01-.02.03-.03.04Zm.39-.45s.06-.06.09-.1c-.03.03-.06.06-.09.1Zm-2.41,4.59c.01-.06.03-.13.05-.2-.01.06-.03.13-.05.2Zm.13-.54c.02-.06.04-.13.05-.19-.02.06-.04.13-.05.19Zm-.42-6.31c.07-.08.13-.15.2-.22-.07.07-.14.15-.2.22Zm3.64,43.01c-.11-.08-.23-.17-.34-.25.11.09.23.17.34.25Zm-2.61-2.55c.05.06.1.12.15.18-.05-.06-.1-.11-.15-.18Zm.54.64c.08.09.16.17.24.25-.08-.09-.16-.17-.24-.25Zm-1.3-1.64s.03.04.05.06c-.02-.02-.03-.04-.05-.06Zm-6.47,37.79c-.1,0-.2,0-.3,0,.1,0,.2,0,.3,0Zm-.88-.03c-.08,0-.16,0-.24-.01.08,0,.16,0,.24.01Zm26.72-1.3v.58-.58Zm1.01-15.28c-.14.05-.26.11-.37.2.11-.08.23-.15.37-.2Zm.69-.13c.07,0,.13.01.2.02-.08,0-.15-.02-.23-.02h.03Zm.88.23c-.05-.03-.1-.06-.16-.09.06.03.11.06.16.09Zm.46.46c-.03-.05-.06-.11-.1-.16.04.05.07.1.1.16Zm.3,1.21c0-.14,0-.27-.03-.4.01.13.03.26.03.4Zm-.05-.52c-.01-.09-.03-.17-.05-.25.02.08.04.17.05.25Zm3.77,15.36h.05-.28.23,0Zm3.49-.17s-.08.04-.13.06c.04-.02.09-.04.13-.06Zm-.62.18c-.06,0-.12,0-.19.01.06,0,.13,0,.19-.01Zm1.2-8.21c0,2.18,0,4.37.01,6.55,0-2.18-.01-4.37-.01-6.55Zm-19.96-73.75c.23,0,.45,0,.68.01-.23-.01-.46-.01-.68-.01Zm-7.41,1.96c.09-.05.17-.1.26-.14-.09.05-.17.09-.26.14Zm.55-.31c.09-.05.18-.09.27-.13-.09.04-.18.09-.27.13Zm.57-.28c.09-.04.18-.08.27-.12-.09.04-.18.08-.27.12Zm1.17-.48c.09-.04.19-.07.29-.1-.1.03-.19.06-.29.1Zm.61-.2c.1-.03.2-.06.29-.09-.1.03-.2.06-.29.09Zm.62-.18c.1-.03.2-.05.31-.08-.1.03-.2.05-.31.08Zm.63-.15c.1-.02.21-.04.32-.06-.1.02-.21.04-.32.06Zm.64-.13c.11-.02.22-.04.33-.05-.11.02-.22.03-.33.05Zm1.3-.17c.13-.01.27-.02.4-.03-.13,0-.27.01-.4.03Zm.66-.04c.19,0,.38-.01.57-.01-.19,0-.38,0-.57.01Zm-7.56,2.46c-.08.05-.16.11-.24.17.08-.06.16-.11.24-.17Zm-.51.36c-.08.06-.16.12-.23.18.08-.06.15-.12.23-.18Zm-.5.38c-.08.06-.15.13-.23.19.08-.06.15-.13.23-.19Zm-.94.83c-.07.07-.14.14-.21.21.07-.07.14-.14.21-.21Zm.46-.42c-.08.06-.15.13-.22.2.07-.07.15-.13.22-.2Zm-4.3,7.62c-.04.22-.07.44-.1.66.03-.22.06-.45.1-.66Zm2.59-5.8c-.06.08-.13.17-.19.24.06-.08.12-.17.19-.24Zm-1.05,1.56c-.05.09-.1.19-.15.28.05-.09.1-.19.15-.28Zm-.3.56c-.05.1-.1.2-.14.29.05-.1.09-.2.14-.29Zm-.52,1.16c-.04.11-.08.22-.12.33.04-.11.08-.22.12-.33Zm-.22.61c-.04.11-.07.23-.11.35.04-.11.07-.23.11-.35Zm-9.79,44.76c.02-1.22.18-2.4.47-3.52.11-.45.25-.89.41-1.31-.15.43-.29.87-.41,1.31-.29,1.12-.45,2.3-.47,3.52Zm2.98,31.06c-.45-.11-.84-.28-1.2-.5-.35-.22-.65-.49-.9-.8-.59-.74-.89-1.76-.9-3.01-.02-4.46-.04-8.92-.05-13.38,0,4.46.03,8.92.05,13.38,0,1.26.31,2.27.9,3.01.25.32.55.59.9.8.35.22.75.38,1.2.5.3.08.61.13.95.15-.34-.03-.66-.08-.95-.15h0Zm20.76.19h-.23c6.21,0,12.43,0,18.64-.02-6.14.01-12.28.02-18.41.02Z"/>
      <path class="cls-2" d="m36.34,50.05c-.84-1.7-1.85-3.35-2.8-4.88-.5-.81-1.07-1.4-1.69-1.76-1.64-.95-3.53-.29-5.64,1.94l-.5-.28-.66-.38-.75-.43-3.77-2.18c-3.13-1.81-6.26-3.61-9.39-5.42-1.35-.78-2.54-.55-3.27.64-.73,1.17-.4,2.35.9,3.21.28.19.56.36.8.49l.29.17.29.17,1.67.96,2.02,1.17,2.02,1.17c2.2,1.27,4.4,2.54,6.59,3.81.41.24.81.51,1.19.77.1.07.19.13.29.2-.92,2.75-.53,4.78,1.12,5.73.52.3,1.15.48,1.89.53,2,.14,4.1.14,6.24,0,1.37-.09,2.52-.77,3.14-1.86.64-1.11.64-2.49,0-3.76h0Zm-6.24-1.77l1.73,2.92-2.71-.03h-.68s1.66-2.89,1.66-2.89h0Zm1.87-4.36c.05.04.11.08.17.13-.05-.05-.11-.08-.17-.13Zm-.71,5.6c-.19-.32-.38-.64-.57-.96.19.32.38.64.57.96Zm1.51-4.82c.04.05.08.09.12.15-.04-.05-.08-.1-.12-.15Zm-1.03-.93c-.09-.05-.17-.1-.26-.14.06.03.13.06.19.1.02.01.04.03.07.05Zm-.33-.18c-.12-.05-.24-.1-.36-.13.12.04.24.08.36.13Zm-.45-.15c-.1-.03-.19-.04-.29-.05.1.01.19.03.29.05Zm-.4-.07c-.12-.01-.25-.01-.38,0,.13,0,.25,0,.38,0Zm-4.27,2.43c.16-.18.32-.34.47-.49-.15.15-.31.32-.47.49-.32-.19-.62-.36-.92-.53.29.17.6.34.92.53Zm2.46-2.02c-.12.06-.24.13-.36.2.12-.07.24-.14.36-.2Zm-.48.28c-.12.08-.24.16-.36.25.12-.09.24-.17.36-.25Zm-.45.31c-.15.11-.3.23-.45.37.15-.13.3-.25.45-.37Zm-.56.47c-.12.1-.24.22-.36.33.12-.12.24-.23.36-.33Zm-19.07-7.36c.26-.42.56-.68.9-.82.34-.13.7-.14,1.09-.04-.39-.1-.75-.1-1.09.04-.34.13-.64.4-.9.82-.34.56-.4,1.07-.25,1.53-.16-.46-.1-.97.25-1.53Zm-.18,1.69c.05.11.12.22.19.32-.08-.1-.14-.21-.19-.32Zm1.75,1.51s-.03-.01-.04-.02c.2.11.4.23.59.34-.18-.1-.37-.21-.55-.32Zm2.25,1.3c-.55-.32-1.11-.64-1.66-.96,1.85,1.07,3.71,2.14,5.56,3.21-1.3-.75-2.6-1.5-3.9-2.25Zm12.37,7.29c-.07.2-.14.4-.19.59.06-.19.12-.39.19-.59Zm-.39,1.35c-.03.16-.06.31-.09.46.02-.15.05-.3.09-.46Zm-.15,1.17c0,.12,0,.24,0,.35,0-.11,0-.23,0-.35Zm0,.5c0,.12.02.24.03.35-.01-.11-.03-.23-.03-.35Zm.15.93c.03.1.06.19.1.29-.04-.09-.07-.19-.1-.29Zm.15.4c.04.09.08.17.13.25-.05-.08-.09-.17-.13-.25Zm.18.34c.06.1.14.2.22.3-.08-.09-.15-.19-.22-.3Zm.88.86c.07.04.14.08.22.11-.06-.03-.12-.05-.18-.09-.01-.01-.03-.02-.04-.03Zm1.27.45c.16.03.33.05.51.06-.18-.01-.34-.03-.51-.06Z"/>
      <path class="cls-2" d="m120.82,101.1c.32-.79-.07-1.96-.51-2.74-.14-.24-.36-.44-.69-.64-.19-.11-.39-.2-.59-.29-.19-.09-.37-.17-.52-.26-2.49-1.44-4.98-2.88-7.47-4.32l-3.26-1.89-3.04-1.75c.01-.05.02-.1.03-.14.05-.2.08-.36.13-.49.84-2.33.38-4.21-1.25-5.15-.71-.41-1.63-.63-2.72-.65h-.45c-1.5-.03-3.04-.05-4.57,0-1.58.06-2.87.75-3.54,1.9-.66,1.13-.62,2.57.09,3.94.77,1.48,1.67,3.03,2.82,4.87.42.66.96,1.2,1.57,1.56,1.07.62,2.29.65,3.35.09.61-.32,1.14-.82,1.69-1.33.21-.2.43-.4.66-.61l.28.16.61.36.61.36.09.05,2.83,1.63,2.83,1.63c2.24,1.3,4.48,2.59,6.73,3.88.13.07.25.16.39.24.14.09.29.19.43.27.25.15.6.32.97.29.22-.01,2.13-.14,2.48-.99h.01Zm-.82-2.56c-.03-.06-.08-.11-.12-.16.05.05.09.1.12.16Zm-.17-.21s-.07-.07-.11-.1c.04.03.07.06.11.1Zm-.17-.15s-.08-.06-.13-.09c.04.03.08.05.13.09Zm-.19-.13s-.07-.04-.1-.06c.03.01.05.03.07.04.01,0,.02.01.03.02Zm-.57-.29c-.07-.03-.14-.06-.2-.1.07.03.13.06.2.1Zm-.31-.15c-.09-.04-.17-.09-.25-.13.08.05.16.09.25.13Zm-7.73-4.45s.04.03.06.04c-2.2-1.27-4.4-2.54-6.6-3.81,2.18,1.26,4.36,2.52,6.54,3.77Zm-5.91-6.9c0-.14-.02-.28-.04-.41.02.13.04.27.04.41Zm-.38,2.19c.06-.18.11-.35.16-.52-.05.17-.1.34-.16.52Zm.2-.66c.04-.15.07-.29.1-.43-.03.14-.06.28-.1.43Zm.11-.5c.03-.16.05-.32.06-.47-.01.15-.03.31-.06.47Zm.07-.58c0-.13.01-.25,0-.37,0,.12,0,.24,0,.37Zm-.05-.96c-.02-.11-.04-.22-.08-.32.03.1.05.21.08.32Zm-.27-.82c-.05-.1-.1-.19-.16-.28.06.09.11.18.16.28Zm-.22-.36c-.07-.1-.15-.2-.23-.29.09.09.16.19.23.29Zm-.24-.3c-.08-.09-.18-.17-.27-.25.1.08.19.16.27.25Zm-.35-.31c-.09-.07-.19-.14-.29-.2.1.06.2.13.29.2Zm-.33-.22c-.11-.07-.24-.13-.37-.18.12.05.24.11.35.18,0,0,0,0,.01,0Zm-3.17,3.55l-1.68,2.91-1-1.67-.76-1.26h1.89s1.56.02,1.56.02h0Zm-3.63,7.2s-.06-.04-.09-.07c.03.02.06.05.09.07Zm1.74-11.4c.83,0,1.67.02,2.5.03.19,0,.37.01.55.03-.18-.01-.35-.03-.55-.03-.83-.01-1.67-.03-2.5-.03Zm4.61.42c-.13-.05-.27-.1-.41-.15.14.04.28.09.41.15Zm-6.78,10.62s0,0-.01-.01c0,0,0,0,.01.01Zm-.31-.34s-.05-.06-.08-.09c.03.03.05.06.08.09Zm1.08.93s.01.01.02.01h0s-.01,0-.02-.01h0Zm2.2.39s.08-.02.12-.03c-.04.01-.08.02-.12.03Zm-1.86-.21s.06.03.1.04c-.03-.01-.07-.03-.1-.04Zm.34.13s.08.03.12.04c-.04-.01-.08-.02-.12-.04Zm.36.09s.07.01.11.02c-.04,0-.07-.01-.11-.02Zm.44.05h.02-.02Zm.37,0s.07,0,.11-.01c-.04,0-.07.01-.11.01Zm.72-.15s.07-.03.11-.04c-.04.01-.07.03-.11.04Zm10.4,2.06c-1.89-1.09-3.77-2.18-5.65-3.26l-.09-.05c-.2-.12-.41-.24-.61-.36-.2-.12-.4-.23-.59-.34.37.22.79.45,1.2.69,4.16,2.4,8.31,4.81,12.48,7.2-2.24-1.29-4.49-2.59-6.73-3.88Zm7.54,4.4s.07.04.11.06c-.03-.02-.06-.03-.1-.05,0,0,0,0-.01,0Zm.59.24c.06.01.13.01.19.01-.06,0-.13,0-.19-.01Zm-.39-.14s.08.03.12.05c-.04-.01-.08-.03-.12-.05Zm.2.08s.09.03.13.04c-.04-.01-.09-.02-.13-.04Z"/>
      <path class="cls-2" d="m33.08,82.73c-1.89-.11-3.82-.08-5.63-.02-.96.03-1.75.23-2.37.59-1.64.95-2.02,2.91-1.14,5.85l-.5.28-.66.38-.75.43-3.77,2.18c-3.13,1.81-6.26,3.61-9.38,5.42-1.35.78-1.74,1.92-1.08,3.15.65,1.22,1.83,1.52,3.23.83.3-.15.59-.31.83-.45l.29-.17.29-.17,1.67-.96,2.02-1.17,2.02-1.17c2.2-1.27,4.4-2.54,6.6-3.8.41-.24.85-.45,1.27-.65.11-.05.21-.1.32-.15,1.92,2.17,3.87,2.84,5.52,1.89.52-.3.99-.76,1.4-1.37,1.12-1.66,2.17-3.48,3.12-5.4.61-1.24.59-2.56-.04-3.65-.65-1.11-1.83-1.8-3.25-1.89Zm-4.65,4.52l3.39-.04-1.38,2.34-.34.59-1.66-2.88Zm-2.84-3.8c.06-.03.13-.06.19-.08-.06.03-.13.05-.19.08Zm4.49,3.42c.75-.01,1.51-.02,2.38-.03-.86.01-1.63.02-2.38.03Zm-4-3.59c.07-.02.13-.04.2-.06-.07.02-.14.04-.2.06Zm-.75.3c-.09.05-.18.1-.26.15.06-.04.12-.08.18-.12.02-.01.05-.02.07-.04Zm-.32.19c-.1.08-.2.16-.29.25.09-.09.19-.17.29-.25Zm-.62.63c-.07.1-.14.21-.19.32.06-.11.12-.22.19-.32Zm-.2.33c-.06.12-.11.24-.15.37.04-.13.09-.26.15-.37Zm-.19.48c-.03.1-.06.21-.08.32.02-.11.05-.22.08-.32Zm.36,4.1c-.07-.23-.13-.44-.19-.65.06.21.12.43.19.65-.32.19-.62.36-.92.53.29-.17.6-.34.92-.53Zm-.52-3.14c0,.13,0,.27,0,.41,0-.14,0-.28,0-.41Zm0,.56c0,.14.02.29.04.44-.02-.15-.03-.3-.04-.44Zm.05.54c.02.18.05.37.09.57-.04-.2-.07-.39-.09-.57Zm.12.72c.03.15.07.31.11.48-.04-.16-.08-.32-.11-.48Zm-15.9,12.82c-.23-.43-.31-.83-.25-1.19.05-.36.23-.68.51-.96-.28.28-.46.61-.51.96-.05.36.03.75.25,1.19.31.58.73.88,1.2.98-.47-.09-.89-.4-1.2-.98Zm1.38,1c.12.01.25,0,.37,0-.13.01-.25.02-.37,0Zm2.04-.68c-.22.13-.44.24-.66.36.22-.11.45-.23.66-.36Zm.15-.08s-.03.01-.04.02c.2-.11.39-.23.59-.34-.18.11-.37.22-.55.32Zm2.24-1.3c-.55.32-1.11.64-1.66.96,1.85-1.07,3.71-2.14,5.56-3.21-1.3.75-2.6,1.5-3.9,2.25Zm4.05-2.34c2.19-1.27,4.39-2.53,6.59-3.8-2.2,1.26-4.39,2.53-6.59,3.8Zm11.18-2.57c.13.05.26.09.39.13-.13-.04-.26-.08-.39-.13Zm-2.19-1.57c.1.1.2.2.3.3-.1-.09-.2-.19-.3-.3Zm.43.42c.12.11.24.21.36.31-.12-.09-.24-.2-.36-.31Zm.41.35c.14.11.27.2.41.3-.14-.09-.27-.19-.41-.3Zm.95.61c.11.05.21.1.32.15-.1-.04-.21-.09-.32-.15Zm.89.33c.1.03.2.04.3.06-.1-.01-.2-.03-.3-.06Zm.42.07c.1.01.19.01.28.01-.09,0-.19,0-.28-.01Zm.81-.04c.1-.02.2-.05.29-.08-.1.03-.19.06-.29.08Zm.75-.28c.07-.04.14-.09.21-.13-.05.04-.11.08-.16.11-.01.01-.03.01-.05.03h0Zm.56-.41c-.07.06-.14.12-.2.17.07-.05.14-.11.2-.17Zm.46-.47c.1-.13.21-.26.31-.41-.1.15-.2.28-.31.41Zm-.32.35c.07-.07.14-.15.22-.23-.07.08-.14.16-.22.23Z"/>
      <path class="cls-2" d="m120.81,37.26c-.52-.68-1.74-.92-2.62-.93-.28,0-.56.09-.89.28-.19.11-.37.24-.55.36-.17.12-.33.23-.48.32-2.49,1.44-4.98,2.88-7.47,4.31l-3.26,1.89-3.04,1.75s-.07-.07-.11-.1c-.15-.14-.27-.25-.36-.36-1.6-1.89-3.45-2.43-5.09-1.49-.71.41-1.36,1.1-1.92,2.03l-.23.38c-.77,1.29-1.56,2.61-2.28,3.96-.74,1.4-.78,2.86-.12,4.01.65,1.13,1.91,1.82,3.46,1.89,1.67.07,3.46.07,5.63,0,.78-.03,1.52-.23,2.13-.59,1.07-.62,1.71-1.66,1.75-2.85.03-.69-.14-1.39-.31-2.13-.06-.28-.13-.57-.2-.88l.28-.16.61-.36.61-.36.09-.05,2.83-1.63,2.83-1.63c2.24-1.3,4.49-2.59,6.73-3.89.13-.07.26-.14.41-.21.15-.08.31-.15.46-.24.26-.15.57-.36.74-.69.1-.19.94-1.91.38-2.64h.01Zm-2.89-.53s-.09.03-.14.04c.05-.02.09-.03.14-.04Zm-.21.08s-.09.04-.14.06c.05-.03.09-.05.14-.06Zm-.2.1s-.06.04-.1.06c.02-.01.05-.03.07-.04.01,0,.02-.01.03-.01h0Zm-.54.35c-.06.04-.12.09-.18.13.06-.04.12-.08.18-.13Zm.28-.19s-.07.04-.1.07c.03-.02.07-.05.1-.07Zm-.56.38c-.08.05-.16.1-.24.15.08-.05.16-.1.24-.15Zm-7.72,4.47s.04-.03.06-.04c-2.2,1.27-4.4,2.54-6.6,3.81,2.18-1.26,4.36-2.52,6.54-3.77Zm-8.93,1.67c-.13-.06-.25-.12-.38-.17.13.05.25.1.38.17Zm1.71,1.43c-.12-.14-.24-.28-.37-.4.12.13.25.26.37.4Zm-.47-.5c-.11-.11-.22-.21-.33-.3.11.09.22.19.33.3Zm-.38-.35c-.13-.1-.25-.2-.37-.29.13.09.25.18.37.29Zm-2.58-.96c-.13.01-.25.03-.37.06.12-.03.25-.05.37-.06Zm-.38.06c-.12.03-.24.06-.35.11.11-.04.23-.08.35-.11Zm-.45.15c-.1.04-.21.09-.32.15.1-.06.21-.11.32-.15Zm-.36.18c-.11.06-.23.14-.34.22.11-.08.22-.15.33-.22,0,0,.01,0,.01,0Zm1.49,4.52l1.68,2.91-1.95.04-1.47.03.96-1.63.79-1.34Zm4.42,6.75s-.07.03-.1.04c.04-.01.07-.03.1-.04Zm-6.33-10.99c-.11.09-.22.18-.33.28.11-.1.22-.19.33-.28Zm-.37.32c-.1.1-.2.2-.29.31.1-.11.2-.22.29-.31Zm6.18,10.85h-.01.01Zm.89-.37s.01,0,.02-.01h0s-.01,0-.02,0h0Zm1.44-1.71s.03-.08.04-.12c-.01.04-.03.08-.04.12Zm-1.11,1.5s.06-.04.08-.06c-.03.02-.05.04-.08.06Zm.28-.23s.06-.06.09-.09c-.03.03-.06.06-.09.09Zm.26-.27s.05-.05.07-.09c-.02.03-.05.06-.07.09Zm.27-.35s0-.01.01-.02c0,0,0,.01-.01.02Zm.18-.32s.03-.06.04-.1c-.01.03-.03.07-.04.1Zm.23-.7s.01-.08.02-.11c0,.04-.01.08-.02.11Zm6.98-7.98c-1.89,1.09-3.77,2.18-5.65,3.26l-.09.05c-.2.12-.41.24-.61.36-.2.12-.4.23-.59.34.37-.22.79-.45,1.2-.69,4.16-2.4,8.32-4.8,12.47-7.21-2.24,1.3-4.48,2.59-6.73,3.89h0Zm6.74-3.9c.13-.08.28-.15.42-.22-.14.07-.29.14-.42.22Zm.84-.44s.07-.04.1-.06c-.03.02-.06.04-.09.06,0,0,0,0-.01,0Z"/>
    </g>
  </g>
</svg>